<?xml version="1.0" encoding="UTF-8"?>
<svg width="251px" height="127px" viewBox="0 0 251 127" version="1.1" xmlns="http://www.w3.org/2000/svg" xmlns:xlink="http://www.w3.org/1999/xlink">
    <!-- Generator: Sketch 58 (84663) - https://sketch.com -->
    <title>Artboard</title>
    <desc>Created with Sketch.</desc>
    <g id="Artboard" stroke="none" stroke-width="1" fill="none" fill-rule="evenodd">
        <g id="Camino-Real-Logo" transform="translate(12.000000, 11.000000)" fill="#FFFFFF" fill-rule="nonzero">
            <path d="M182.44,73.41 L182.38,74.31 L181.1,78.66 L161.72,78.66 C162.432037,78.263374 162.999406,77.6504758 163.34,76.91 C163.715629,76.0950716 163.90684,75.2073064 163.9,74.31 L163.9,59.65 C163.831127,59.2036559 163.660005,58.7792747 163.4,58.41 C163.119601,58.0276312 162.782369,57.6903986 162.4,57.41 C162.284193,57.3516132 162.158895,57.3143626 162.03,57.3 L179.73,57.3 L180.88,61.87 L180.58,61.87 C180.213392,61.3152065 179.791212,60.7992088 179.32,60.33 C178.891427,59.8860768 178.391083,59.51758 177.84,59.24 L174.14,58.06 L167.38,58.06 L167.38,66.84 L174.07,66.84 C174.843353,66.7596262 175.579961,66.4691329 176.2,66 C176.858288,65.4632851 177.411019,64.8088245 177.83,64.07 L177.83,70.66 C177.568322,69.8468266 177.04429,69.1434278 176.34,68.66 C175.604964,68.1539604 174.769202,67.8128332 173.89,67.66 L167.3,67.66 L167.3,75 C167.290631,75.7334949 167.550332,76.4450034 168.03,77 C168.490145,77.5617237 169.184122,77.8791814 169.91,77.86 L174,77.86 L177.24,76.98 C178.181096,76.6758565 179.066112,76.2198369 179.86,75.63 C180.784407,74.9457838 181.653738,74.1901345 182.46,73.37 L182.44,73.41 Z M21,76.39 C20.7650008,75.1105833 20.4032169,73.8577389 19.92,72.65 C19.5013108,74.3104482 18.595897,75.8078634 17.32,76.95 C16.1663396,78.0429321 14.6391517,78.6545226 13.05,78.66 C10.3877929,78.6825638 7.87673263,77.4251736 6.3,75.28 C5.61440669,74.2403224 5.10427992,73.0950709 4.79,71.89 C4.44287659,70.5852791 4.27136375,69.2400803 4.28,67.89 C4.23492869,65.4817523 4.82837541,63.1045152 6,61 C7.01909118,59.1027667 8.87109168,57.7952543 11,57.47 L14,57.47 C15.305787,57.8113676 16.4794963,58.5357935 17.37,59.55 C18.301808,60.6013873 18.9277948,61.8879458 19.18,63.27 L19.43,63.27 L20.6,59 C19.3889986,58.2772037 18.1052542,57.6839328 16.77,57.23 C15.4798051,56.8016372 14.1294457,56.5822038 12.77,56.5799358 C11.6181004,56.5768339 10.4688615,56.6907526 9.34,56.92 C8.21940653,57.1305762 7.12592373,57.4660004 6.08,57.92 C4.25784627,58.8686247 2.76569197,60.3468337 1.8,62.16 C0.795823573,64.0459654 0.280125561,66.1534512 0.3,68.29 C0.327507997,69.1566147 0.400944404,70.0211615 0.52,70.88 C0.770003716,72.313319 1.40615993,73.6513215 2.36,74.75 C3.52855715,76.1774698 4.98754411,77.339887 6.64,78.16 L9.97,79.09 L14.9,79.09 L17.98,78.15 L20.98,76.31 L21,76.39 Z M29.19,68.16 C30.0213617,65.7613631 31.0864825,63.450252 32.37,61.26 C33.05,62.63 33.61,63.8 34.02,64.76 C34.43,65.72 34.95,66.86 35.51,68.16 L35.88,68.84 C36.7,70.48 37.32,71.84 37.78,72.91 C38.24,73.98 38.57,74.79 38.78,75.37 C38.9733499,75.8024748 39.0852236,76.2669199 39.11,76.74 C39.1222299,77.1576998 39.0071376,77.5692419 38.78,77.92 C38.5567071,78.2634516 38.2262747,78.5235793 37.84,78.66 L45.7,78.66 C45.3939916,78.4148534 45.103437,78.1510165 44.83,77.87 C44.56,77.59 43.39,75.79 41.33,72.49 C38.4128617,67.4103263 35.9113721,62.1030216 33.85,56.62 L33.66,56.62 C32.0933333,60.0133333 30.5966667,63.1866667 29.17,66.14 C27.7433333,69.0933333 26.2866667,72.0466667 24.8,75 C24.0172831,76.3692937 23.0291213,77.6103979 21.87,78.68 L28,78.68 L27.28,78.21 C26.5028265,77.8566419 26.0223104,77.0624003 26.07,76.21 C26.0776095,75.6657461 26.1825992,75.1272506 26.38,74.62 L28.8,68.89 M71.19,78.71 L71.19,78.3 C70.5926592,78.1794545 70.071602,77.8176093 69.75,77.3 C69.4182789,76.7119639 69.2523816,76.0449185 69.27,75.37 L69.27,59.84 C69.2600343,59.2210519 69.4227916,58.6115778 69.74,58.08 C70.0482042,57.8721985 70.3850883,57.7104942 70.74,57.6 L70.74,57.26 L65.61,57.26 C64.5966667,59.8866667 63.51,62.5866667 62.35,65.36 C61.18,68.11 60.04,70.74 58.9,73.23 C56.32,68.0166667 53.9,62.6833333 51.64,57.23 L46.55,57.23 L46.42,57.44 C46.6460935,57.5759043 46.8632086,57.7262148 47.07,57.89 C47.2482205,58.0044671 47.4155858,58.1350121 47.57,58.28 C47.7059158,58.5343775 47.8228993,58.798426 47.92,59.07 C47.9620399,59.2545315 47.9921026,59.4415885 48.01,59.63 L48.01,74.42 C47.6756508,75.2701505 47.2950832,76.1013904 46.87,76.91 C46.5088096,77.5645125 46.030946,78.1474383 45.46,78.63 L51.52,78.63 C51.4487877,78.5029394 51.3576263,78.3881436 51.25,78.29 C50.7329208,78.0100869 50.2745771,77.6332264 49.9,77.18 C49.3708405,76.1491227 49.0320776,75.0312052 48.9,73.88 L48.9,59.88 C49.5,61.29 50.41,63.37 51.59,66.11 C52.77,68.85 53.79,71.11 54.59,72.84 L57.33,79 C58.27,76.8866667 59.38,74.3733333 60.66,71.46 C61.94,68.56 62.84,66.52 63.34,65.34 C63.84,64.16 64.59,62.34 65.61,59.92 L65.61,75.4 C65.6168751,76.2965544 65.3089966,77.1671075 64.74,77.86 C64.5979923,77.9267308 64.4609716,78.0035961 64.33,78.09 C64.1946365,78.187839 64.0419349,78.2590997 63.88,78.3 L63.88,78.62 L71.19,78.71 Z M80.07,78.62 C79.5368866,78.2418068 79.0501972,77.8021081 78.62,77.31 C78.4122724,77.0124526 78.2785677,76.6696198 78.23,76.31 L78.23,59.19 C78.3695205,58.4146704 78.8407024,57.7389444 79.52,57.34 L73.27,57.34 L73.09,57.48 C73.5649485,57.6317712 73.9627302,57.9614642 74.2,58.4 C74.4706061,58.8752514 74.6119666,59.4131109 74.61,59.96 L74.61,74.43 C74.620077,75.3168785 74.4675584,76.1980969 74.16,77.03 C73.9011496,77.7397963 73.3463522,78.3018938 72.64,78.57 L80.07,78.62 Z M103.4,57.26 L97.4,57.26 C98.0523966,57.6895388 98.6328777,58.2193965 99.12,58.83 C99.58725,59.4208513 99.927669,60.1016893 100.12,60.83 L100.12,72.2 C97.6333333,69.8866667 95.3,67.52 93.12,65.1 C90.95,62.68 88.79,60.1 86.68,57.26 L81.13,57.26 L81.25,57.6 C81.7034697,57.7316936 82.1162681,57.9759327 82.45,58.31 C82.7532666,58.6384731 82.914937,59.0731867 82.9,59.52 C83.14,61.92 83.27,64.34 83.27,66.77 C83.2668269,69.7088114 83.0797949,72.6445456 82.71,75.56 C82.3964414,76.8295331 81.6186667,77.9355429 80.53,78.66 L86.63,78.66 C85.7597204,78.1777022 85.0608273,77.4368754 84.63,76.54 C84.1661216,75.6081951 83.9264147,74.5808798 83.93,73.54 L83.93,60.14 C89.59,66.2 95.1233333,72.5333333 100.53,79.14 L100.83,79.14 C100.83,77.87 100.83,75.99 100.91,73.53 C100.99,71.07 101.02,68.82 101.07,66.81 C101.12,64.8 101.15,62.68 101.15,60.46 C101.327581,59.8278942 101.615327,59.2320897 102,58.7 C102.398765,58.1648502 102.862296,57.6811662 103.38,57.26 L103.4,57.26 Z M123.22,64.34 C122.933176,63.1116031 122.489535,61.9252019 121.9,60.81 C120.771812,58.626793 118.507271,57.2680684 116.05,57.3 C114.719022,57.2985535 113.4175,57.691794 112.31,58.43 C111.221729,59.1210365 110.381268,60.1400949 109.91,61.34 C109.477206,62.4622346 109.142617,63.6199108 108.91,64.8 C108.70455,65.945263 108.600812,67.1064552 108.6,68.27 C108.569476,70.3489333 108.967762,72.4118475 109.77,74.33 C110.499785,76.0568484 111.812853,77.472555 113.48,78.33 C114.267702,78.6203471 115.100491,78.7693013 115.94,78.77 C117.363955,78.763286 118.754678,78.3391156 119.94,77.55 C121.227526,76.5322238 122.204393,75.1743098 122.76,73.63 C123.384811,71.9335482 123.69653,70.1377789 123.68,68.33 C123.676743,66.9836593 123.522445,65.6419341 123.22,64.33 L123.22,64.34 Z M124.62,60.34 C126.227185,62.158307 127.245301,64.4211754 127.54,66.83 C127.54,66.9833333 127.54,67.1733333 127.54,67.4 C127.54,67.62 127.54,67.85 127.54,68.07 C127.589137,70.7198175 126.672044,73.2969199 124.96,75.32 C123.25,77.32 121.62,78.53 120.1,78.82 C119.053967,79.0415004 117.995302,79.1984633 116.93,79.29 L115.93,79.29 C114.861222,79.2412111 113.796132,79.1310293 112.74,78.96 C111.18,78.73 109.52,77.7 107.74,75.85 C105.973385,73.9562129 104.852994,71.5508738 104.54,68.98 C104.520053,66.7534249 105.016369,64.5525179 105.99,62.55 C106.905439,60.6497485 108.410115,59.0959684 110.28,58.12 C112.083604,57.1450462 114.099775,56.6298406 116.15,56.62 C117.347819,56.675752 118.538753,56.832982 119.71,57.09 C121.627809,57.602401 123.322409,58.7344777 124.53,60.31 L124.62,60.34 Z M152.62,66.34 C153.65319,65.6695506 154.417771,64.6571891 154.78,63.48 C154.840316,63.1500928 154.870441,62.8153752 154.87,62.48 C154.898409,61.2556969 154.32722,60.094653 153.34,59.37 C152.357216,58.5872114 151.136417,58.1638129 149.88,58.1699331 L144.41,58.1699331 L144.41,67.17 L144.72,67.31 L147.3,67.31 C149.82,67.31 151.6,66.98 152.62,66.31 L152.62,66.34 Z M160.36,77.82 C160.61,78 160.9,78.2 161.23,78.4 L161.1,78.74 L156.1,78.74 L155.52,77.74 L153.61,71.97 C153.254367,70.8441147 152.554947,69.8579324 151.61,69.15 C150.718059,68.4233182 149.600452,68.0307412 148.45,68.04 L144.36,68.04 L144.36,74.91 C144.360405,76.0194827 144.710296,77.1006466 145.36,78 L146.54,78.44 L146.54,78.78 L139,78.78 L138.81,78.5 C139.452893,78.361833 140.016314,77.977845 140.38,77.43 C140.773612,76.8389464 140.972882,76.1397545 140.95,75.43 L140.95,60.9 C140.981272,59.917157 140.697452,58.9500651 140.14,58.14 C139.827159,57.8780555 139.457261,57.6931064 139.06,57.6 L139.12,57.26 L152.87,57.26 C154.336364,57.4839318 155.741661,58.0045382 157,58.79 C158.201319,59.4486945 158.937261,60.7202182 158.91,62.09 C158.939543,63.3330312 158.49639,64.5409798 157.67,65.47 C156.845814,66.3898937 155.736461,67.0062013 154.52,67.22 L151.32,67.63 C152.636349,67.8340357 153.904038,68.2780661 155.06,68.94 C156.124034,69.6160799 156.957517,70.5995202 157.45,71.76 L159.63,77.14 C159.84,77.35 160.06,77.54 160.29,77.74 L160.36,77.82 Z M190.27,68.24 C191.109793,65.8447666 192.174547,63.5344514 193.45,61.34 C194.13,62.71 194.69,63.88 195.11,64.84 C195.53,65.8 196.04,66.94 196.59,68.24 L196.96,68.92 C197.77,70.56 198.4,71.92 198.87,72.99 C199.34,74.06 199.65,74.87 199.87,75.45 C200.06335,75.8824748 200.175224,76.3469199 200.2,76.82 C200.21223,77.2376998 200.097138,77.6492419 199.87,78 C199.62748,78.350279 199.275873,78.610468 198.87,78.74 L206.71,78.74 C206.41,78.49 206.12,78.22 205.84,77.95 C205.56,77.68 204.41,75.87 202.35,72.57 C199.424642,67.4946188 196.92283,62.1866295 194.87,56.7 L194.67,56.7 C193.09,60.09 191.61,63.27 190.19,66.22 C188.77,69.17 187.3,72.12 185.82,75.06 C185.034062,76.4271065 184.046268,77.6677485 182.89,78.74 L189,78.74 L188.28,78.27 C187.496935,77.921972 187.011102,77.1255251 187.06,76.27 C187.071441,75.7252069 187.179799,75.1868035 187.38,74.68 L189.8,68.95 M227.09,73.24 L226.65,73.24 C225.23212,75.3056131 223.127207,76.8010228 220.71,77.46 L217.32,78.01 L214.46,77.74 C214.058096,77.5166767 213.68528,77.2446218 213.35,76.93 C213.071019,76.6130374 212.884253,76.2256705 212.81,75.81 L212.81,59 C212.959017,58.6098398 213.168218,58.2454245 213.43,57.92 C213.669648,57.6368596 213.975306,57.4170606 214.32,57.28 L207.64,57.28 L207.7,57.49 C207.800644,57.5543359 207.897474,57.6244536 207.99,57.7 C208.110379,57.793787 208.250626,57.8587796 208.4,57.89 C208.671962,58.1271986 208.878543,58.4301846 209,58.77 C209.152224,59.1343027 209.253186,59.5179577 209.3,59.91 L209.3,76.11 C209.166409,76.2688262 209.042837,76.4358159 208.93,76.61 C208.800067,77.0759172 208.556044,77.5020979 208.22,77.85 C207.879846,78.190962 207.484212,78.4716257 207.05,78.68 L225.69,78.68 L227.09,73.15 L227.09,73.24 Z" id="Shape"></path>
            <path d="M108,27.09 L102.74,10.42 L81.74,10.42 C90.4967611,4.4050538 100.775008,0.987060185 111.39,0.56 L111.39,21.9 L111.39,21.9 L111.39,26.51 C110.257362,26.6211915 109.134369,26.8150415 108.03,27.09 L108,27.09 Z M98.55,31.87 C99.8959266,30.7545046 101.361577,29.791938 102.92,29 L96.51,17.52 L73.25,17.52 C71.0932216,19.7184335 69.1199695,22.0896805 67.35,24.61 L92.35,24.61 L98.62,31.88 L98.55,31.87 Z M95.4,35 L89.8,30.25 L63.8,30.25 C62.5614591,32.5347634 61.4854608,34.9039647 60.58,37.34 L87.58,37.34 L92.27,39.82 C93.1215085,38.0966056 94.172003,36.4789112 95.4,35 L95.4,35 Z M91.07,43 L58.82,43 C58.42,44.55 58.09,46.12 57.82,47.72 L90.1,47.72 C90.2716946,46.1167125 90.6067682,44.5351652 91.1,43 L91.07,43 Z M119.44,27.06 L124.7,10.39 L145.75,10.39 C136.993239,4.3750538 126.714992,0.957060185 116.1,0.53 L116.1,21.9 L116.1,21.9 L116.1,26.51 C117.236047,26.6203508 118.362426,26.8142084 119.47,27.09 L119.44,27.06 Z M128.9,31.84 L135.16,24.57 L160.16,24.57 C158.39003,22.0496805 156.416778,19.6784335 154.26,17.48 L131,17.48 L124.54,29 C126.09382,29.7984562 127.555816,30.7641785 128.9,31.88 L128.9,31.84 Z M132.05,35 C133.269842,36.473121 134.30735,38.0881423 135.14,39.81 L139.83,37.33 L166.83,37.33 C165.932149,34.8924426 164.859356,32.5229407 163.62,30.24 L137.62,30.24 L132.05,35 Z M136.39,43 C136.887889,44.5339235 137.223066,46.115959 137.39,47.72 L169.67,47.72 C169.4,46.12 169.07,44.55 168.67,43 L136.39,43 Z M116.12,31.4 L116.12,43 L111.38,43 L111.38,31.39 C102.858662,32.4488444 96.1267088,39.1273696 95,47.64 L132.42,47.64 C131.293976,39.1586973 124.605398,32.4947395 116.12,31.4 L116.12,31.4 Z" id="Shape"></path>
            <path d="M161.25,100.48 L164.46,100.55 L161.89,102.46 L162.82,105.52 L160.21,103.68 L157.58,105.5 L158.53,102.45 L156,100.52 L159.2,100.52 L160.2,97.52 L161.2,100.52 L161.25,100.48 Z M138.02,100.48 L137.02,97.48 L135.97,100.48 L132.77,100.48 L135.32,102.41 L134.37,105.46 L137,103.64 L139.61,105.48 L138.68,102.42 L141.25,100.51 L138.05,100.44 L138.02,100.48 Z M114.78,100.48 L113.78,97.48 L112.73,100.48 L109.54,100.48 L112.09,102.41 L111.09,105.46 L113.71,103.64 L116.33,105.48 L115.4,102.42 L117.96,100.51 L114.77,100.44 L114.78,100.48 Z M91.53,100.48 L90.53,97.48 L89.53,100.48 L86.33,100.48 L88.87,102.41 L87.93,105.46 L90.55,103.64 L93.17,105.48 L92.23,102.42 L94.8,100.51 L91.6,100.44 L91.53,100.48 Z M68.28,100.48 L67.28,97.48 L66.23,100.48 L63.03,100.48 L65.59,102.41 L64.64,105.46 L67.26,103.64 L69.87,105.48 L68.94,102.42 L71.51,100.51 L68.3,100.44 L68.28,100.48 Z" id="Shape"></path>
            <polygon id="Path" points="57.09 88.09 170.37 88.09 126.2 90.35 107.9 90.35 57.09 88.09"></polygon>
        </g>
    </g>
</svg>